/vscmnt/brussel_pixiu_data/_data_brussel/112/vsc11236/PredSimResults/SUBJ11opt3D/SUBJ11opt3D_12158465.mot
version=1
nRows=4
nColumns=50
inDegrees=yes
endheader
                time	         pelvis_tilt	         pelvis_list	     pelvis_rotation	           pelvis_tx	           pelvis_ty	           pelvis_tz	       hip_flexion_r	     hip_adduction_r	      hip_rotation_r	        knee_angle_r	       ankle_angle_r	         mtp_angle_r	       hip_flexion_l	     hip_adduction_l	      hip_rotation_l	        knee_angle_l	       ankle_angle_l	         mtp_angle_l	    lumbar_extension	      lumbar_bending	     lumbar_rotation	 ercspn_r/activation	 intobl_r/activation	 extobl_r/activation	    abd_r/activation	    add_r/activation	hamstrings_r/activation	bifemsh_r/activation	glut_max_r/activation	iliopsoas_r/activation	rect_fem_r/activation	  vasti_r/activation	gastroc_r/activation	 soleus_r/activation	tib_ant_r/activation	 ercspn_l/activation	 intobl_l/activation	 extobl_l/activation	    abd_l/activation	    add_l/activation	hamstrings_l/activation	bifemsh_l/activation	glut_max_l/activation	iliopsoas_l/activation	rect_fem_l/activation	  vasti_l/activation	gastroc_l/activation	 soleus_l/activation	tib_ant_l/activation	
          2.00789066	         -3.11457518	          0.96402470	         -5.28179052	          2.20867972	          0.94129199	          0.00605503	        -13.90796347	         -2.92850649	         -2.33221465	        -11.25055635	         12.64320020	         28.48223951	         31.26161301	         -2.08830504	         -4.44773949	         -9.21541739	          1.83875626	          0.23135709	        -14.61174780	          2.05688346	          3.21903050	          0.00999999	          0.00999999	          0.00999999	          0.04094782	          0.00999999	          0.01615015	          0.22725777	          0.02103343	          0.13463806	          0.00999999	          0.00999999	          0.15577731	          0.31159685	          0.01495970	          0.03157066	          0.25104371	          0.06485312	          0.00999999	          0.17681603	          0.04477421	          0.16398186	          0.04288182	          0.09683615	          0.04094782	          0.01399894	          0.00999999	          0.00999999	          0.40789542	
          2.02127660	         -3.22881832	          1.01187667	         -5.41593446	          2.22695958	          0.93917505	          0.00501204	        -14.55137493	         -3.16846049	         -2.61959898	        -11.81899551	         11.83003481	         30.26184886	         31.08192224	         -1.93337891	         -4.59740845	        -10.34821545	          1.26421593	          0.24246478	        -14.20888359	          1.56664662	          3.43106248	          0.02206183	          0.00999999	          0.00999999	          0.03347874	          0.03883328	          0.01845660	          0.18580489	          0.01719683	          0.11007945	          0.00999999	          0.00999999	          0.12736280	          0.29209296	          0.01223098	          0.02581202	          0.20525217	          0.05302361	          0.00999999	          0.18747615	          0.03913119	          0.13407080	          0.10831525	          0.07917279	          0.03347874	          0.01144547	          0.01365098	          0.01314705	          0.43264935	
          2.03466253	         -3.32009676	          1.07559451	         -5.53161775	          2.24568432	          0.93733691	          0.00392133	        -15.09807840	         -3.43655870	         -2.91874826	        -12.61994712	         10.87338818	         32.09638833	         30.81912018	         -1.80537483	         -4.69364661	        -11.66678001	          0.76973837	          0.21291625	        -13.76735048	          1.05023239	          3.63725786	          0.01803765	          0.00999999	          0.00999999	          0.02737207	          0.03174991	          0.01509003	          0.15191321	          0.01406005	          0.11716626	          0.00999999	          0.00999999	          0.10413123	          0.26615984	          0.00999999	          0.02716015	          0.16781321	          0.04335185	          0.07202330	          0.20546359	          0.04052514	          0.10961566	          0.12131034	          0.06473130	          0.02737207	          0.00999999	          0.01116097	          0.01074897	          0.50141190	
          2.04804847	         -3.39115402	          1.12517192	         -5.61649090	          2.26452209	          0.93599874	          0.00275456	        -15.43326899	         -3.70191084	         -3.22888296	        -13.80704702	          9.74141180	         33.99138971	         30.58694882	         -1.70353113	         -4.86204702	        -13.04085726	          0.09699353	          0.18484914	        -13.32893067	          0.54733068	          3.82894991	          0.05344540	          0.00999999	          0.00999999	          0.02237927	          0.03323773	          0.01573798	          0.12420353	          0.01170368	          0.09579459	          0.00999999	          0.00999999	          0.08513721	          0.23909658	          0.00999999	          0.03080299	          0.13720330	          0.03544427	          0.10804881	          0.25883251	          0.03785595	          0.08962125	          0.12474335	          0.05292401	          0.02237927	          0.02746244	          0.00999999	          0.00999999	          0.55640506	
